<svg xmlns="http://www.w3.org/2000/svg" xmlns:xlink="http://www.w3.org/1999/xlink" viewBox="0 0 3285.78 1158.68"><defs><style>.cls-1{fill:url(#linear-gradient);}.cls-2{fill:url(#linear-gradient-2);}.cls-3{fill:#fff;}.cls-4{fill:url(#linear-gradient-3);}.cls-5{fill:url(#linear-gradient-4);}.cls-6{fill:url(#linear-gradient-5);}.cls-7{fill:url(#linear-gradient-6);}</style><linearGradient id="linear-gradient" x1="397.25" y1="564.23" x2="701.67" y2="301.44" gradientUnits="userSpaceOnUse"><stop offset="0" stop-color="#311944"/><stop offset="1" stop-color="#6b3976"/></linearGradient><linearGradient id="linear-gradient-2" x1="862.8" y1="2493.73" x2="1167.42" y2="2230.77" xlink:href="#linear-gradient"/><linearGradient id="linear-gradient-3" x1="665.43" y1="242.58" x2="85.82" y2="2034.12" xlink:href="#linear-gradient"/><linearGradient id="linear-gradient-4" x1="932.5" y1="1941.98" x2="352.88" y2="3733.53" xlink:href="#linear-gradient"/><linearGradient id="linear-gradient-5" x1="241.46" y1="573.64" x2="944.05" y2="573.64" gradientUnits="userSpaceOnUse"><stop offset="0" stop-color="#8596ff"/><stop offset="1" stop-color="#73e8fb"/></linearGradient><linearGradient id="linear-gradient-6" x1="305.18" y1="2273.04" x2="1414.46" y2="2273.04" xlink:href="#linear-gradient-5"/></defs><g id="Illustration"><circle class="cls-1" cx="562.16" cy="421.87" r="177.18"/><path class="cls-2" d="M1116.75,2523.07c-58.46-98.52-165.32-163.84-287.53-163.84s-229.06,65.32-287.52,163.84a20.79,20.79,0,0,0-.17,20.52,20.38,20.38,0,0,0,17.38,10.51h540.63a20.41,20.41,0,0,0,17.37-10.52A20.78,20.78,0,0,0,1116.75,2523.07Z" transform="translate(-267.07 -1699.4)"/><circle class="cls-3" cx="583.62" cy="419.92" r="177.18"/><path class="cls-3" d="M1138.21,2521.12c-58.45-98.52-165.31-163.84-287.52-163.84s-229.07,65.32-287.52,163.84a20.81,20.81,0,0,0-.18,20.54,20.42,20.42,0,0,0,17.38,10.53H1121a20.4,20.4,0,0,0,17.36-10.54A20.79,20.79,0,0,0,1138.21,2521.12Z" transform="translate(-267.07 -1699.4)"/><polygon class="cls-4" points="269.24 1023.11 203.34 968.48 840.04 146.97 905.93 201.59 269.24 1023.11"/><path class="cls-5" d="M821.71,1710.79c-306.32,0-554.64,256.83-554.64,573.65s248.32,573.64,554.64,573.64,554.63-256.83,554.63-573.64S1128,1710.79,821.71,1710.79Zm0,1048.95c-253.81,0-459.56-212.8-459.56-475.3s205.75-475.31,459.56-475.31,459.55,212.8,459.55,475.31S1075.51,2759.74,821.71,2759.74Z" transform="translate(-267.07 -1699.4)"/><polygon class="cls-6" points="307.36 1011.72 241.46 957.09 878.15 135.57 944.05 190.2 307.36 1011.72"/><path class="cls-7" d="M859.82,1699.4c-306.32,0-554.64,256.83-554.64,573.64s248.32,573.65,554.64,573.65,554.64-256.83,554.64-573.65S1166.14,1699.4,859.82,1699.4Zm0,1048.95c-253.81,0-459.56-212.8-459.56-475.31s205.75-475.3,459.56-475.3,459.56,212.8,459.56,475.3S1113.63,2748.35,859.82,2748.35Z" transform="translate(-267.07 -1699.4)"/><path class="cls-3" d="M1591.67,1794.71c34.25-5.71,79.11-10.6,136.2-10.6,70.13,0,121.51,16.31,154.14,45.67,30.17,26.1,48.11,66.06,48.11,115,0,49.75-14.68,88.9-42.4,117.44-37.52,40-98.69,60.35-168,60.35-21.2,0-40.77-.82-57.09-4.89v220.19h-70.95Zm70.95,265.05c15.5,4.08,35.07,5.71,58.72,5.71,85.64,0,137.83-41.59,137.83-117.44,0-72.58-51.38-107.65-129.67-107.65-31,0-54.64,2.45-66.88,5.71Z" transform="translate(-267.07 -1699.4)"/><path class="cls-3" d="M2042.68,2153.55c1.63,97,63.61,137,135.38,137,51.38,0,82.37-9,109.28-20.39l12.24,51.38c-25.29,11.42-68.51,24.47-131.31,24.47-121.51,0-194.1-79.92-194.1-199s70.14-212.86,185.13-212.86c128.86,0,163.11,113.36,163.11,185.94,0,14.68-1.63,26.1-2.44,33.44Zm210.41-51.38c.81-45.67-18.76-116.62-99.5-116.62-72.58,0-104.39,66.87-110.1,116.62Z" transform="translate(-267.07 -1699.4)"/><path class="cls-3" d="M2751.39,1943.14c-1.63,28.54-3.27,60.35-3.27,108.47v229.17c0,90.52-17.94,146-56.27,180.23-38.33,35.89-93.79,47.3-143.53,47.3-47.31,0-99.5-11.41-131.31-32.62l17.94-54.64c26.1,16.31,66.88,31,115.81,31,73.4,0,127.23-38.33,127.23-137.83v-44h-1.63c-22,36.7-64.43,66.06-125.6,66.06-97.86,0-168-83.18-168-192.47,0-133.74,87.26-209.59,177.79-209.59,68.51,0,106,35.88,123.15,68.5h1.63l3.26-59.53Zm-74.22,155.77c0-12.23-.81-22.84-4.07-32.62-13-41.6-48.12-75.85-100.32-75.85-68.5,0-117.44,57.9-117.44,149.25,0,77.47,39.15,141.9,116.63,141.9,44,0,84-27.73,99.49-73.4,4.08-12.23,5.71-26.1,5.71-38.33Z" transform="translate(-267.07 -1699.4)"/><path class="cls-3" d="M3085.76,2337.86l-5.71-49.74h-2.45c-22,31-64.42,58.72-120.7,58.72-79.92,0-120.7-56.28-120.7-113.37,0-95.41,84.82-147.61,237.33-146.79v-8.16c0-32.62-9-91.34-89.71-91.34-36.7,0-75,11.42-102.76,29.36l-16.31-47.3c32.62-21.21,79.92-35.07,129.67-35.07,120.7,0,150.06,82.37,150.06,161.48v147.61c0,34.26,1.63,67.69,6.52,94.6Zm-10.6-201.44c-78.3-1.63-167.19,12.24-167.19,88.9,0,46.49,31,68.5,67.69,68.5,51.38,0,84-32.62,95.42-66.05a74.84,74.84,0,0,0,4.08-22.84Z" transform="translate(-267.07 -1699.4)"/><path class="cls-3" d="M1593.68,2579.5c0-25.06-.5-45.62-2-65.67h38.6l2,39.1h1.5c13.54-23.06,36.1-44.62,76.2-44.62,33.09,0,58.16,20.06,68.69,48.63h1a100,100,0,0,1,27.07-31.58c14.54-11,30.58-17.05,53.64-17.05,32.09,0,79.71,21.06,79.71,105.28v142.88H1897V2619.11c0-46.63-17-74.7-52.64-74.7-25.07,0-44.62,18.55-52.14,40.1a72.85,72.85,0,0,0-3.51,22.06v149.9h-43.11V2611.09c0-38.61-17-66.68-50.64-66.68-27.57,0-47.62,22.06-54.64,44.12-2.51,6.51-3.51,14-3.51,21.55v146.39h-43.11Z" transform="translate(-267.07 -1699.4)"/><path class="cls-3" d="M2146.14,2756.47l-3.51-30.58h-1.51c-13.53,19.05-39.6,36.09-74.19,36.09-49.13,0-74.2-34.59-74.2-69.68,0-58.66,52.14-90.74,145.89-90.24v-5c0-20.06-5.52-56.15-55.15-56.15-22.56,0-46.12,7-63.16,18l-10-29.08c20-13,49.13-21.56,79.71-21.56,74.2,0,92.24,50.64,92.24,99.27v90.73c0,21.06,1,41.62,4,58.16Zm-6.52-123.83c-48.13-1-102.77,7.52-102.77,54.65,0,28.57,19.05,42.11,41.61,42.11,31.58,0,51.64-20.06,58.65-40.61a45.83,45.83,0,0,0,2.51-14Z" transform="translate(-267.07 -1699.4)"/><path class="cls-3" d="M2253.42,2400.53h44.12v355.94h-44.12Z" transform="translate(-267.07 -1699.4)"/><path class="cls-3" d="M2506.08,2756.47l-3.51-30.58h-1.5c-13.54,19.05-39.6,36.09-74.2,36.09-49.12,0-74.19-34.59-74.19-69.68,0-58.66,52.14-90.74,145.88-90.24v-5c0-20.06-5.51-56.15-55.14-56.15-22.56,0-46.12,7-63.17,18l-10-29.08c20.05-13,49.12-21.56,79.71-21.56,74.19,0,92.24,50.64,92.24,99.27v90.73c0,21.06,1,41.62,4,58.16Zm-6.51-123.83c-48.13-1-102.77,7.52-102.77,54.65,0,28.57,19,42.11,41.61,42.11,31.58,0,51.63-20.06,58.65-40.61a46.14,46.14,0,0,0,2.51-14Z" transform="translate(-267.07 -1699.4)"/><path class="cls-3" d="M2613.37,2579.5c0-25.06-.51-45.62-2-65.67h39.1l2.51,40.1h1c12-23.06,40.11-45.62,80.22-45.62,33.58,0,85.72,20.06,85.72,103.28v144.88h-44.12V2616.6c0-39.1-14.53-71.69-56.14-71.69-29.08,0-51.64,20.56-59.16,45.12-2,5.51-3,13-3,20.55v145.89h-44.11Z" transform="translate(-267.07 -1699.4)"/><path class="cls-3" d="M3101.15,2400.53V2693.8c0,21.56.5,46.13,2,62.67h-39.61l-2-42.11h-1c-13.54,27.07-43.12,47.62-82.72,47.62-58.66,0-103.78-49.63-103.78-123.32-.5-80.72,49.63-130.35,108.79-130.35,37.1,0,62.16,17.55,73.19,37.1h1V2400.53ZM3057,2612.59c0-5.52-.51-13-2-18.55-6.52-28.07-30.58-51.14-63.67-51.14-45.62,0-72.69,40.11-72.69,93.75,0,49.13,24.06,89.74,71.69,89.74,29.58,0,56.65-19.55,64.67-52.64a76.82,76.82,0,0,0,2-19.05Z" transform="translate(-267.07 -1699.4)"/><path class="cls-3" d="M3174.35,2589.53c0-28.58-.51-53.14-2-75.7h38.6l1.51,47.62h2c11-32.58,37.6-53.14,67.18-53.14a47.39,47.39,0,0,1,12.53,1.51v41.61a65.79,65.79,0,0,0-15-1.51c-31.08,0-53.14,23.57-59.15,56.65a123.47,123.47,0,0,0-2,20.56v129.34h-43.61Z" transform="translate(-267.07 -1699.4)"/><path class="cls-3" d="M3552.85,2633.14c0,89.74-62.17,128.84-120.82,128.84-65.68,0-116.31-48.12-116.31-124.83,0-81.21,53.14-128.84,120.32-128.84C3505.72,2508.31,3552.85,2559,3552.85,2633.14Zm-192.51,2.51c0,53.14,30.58,93.25,73.69,93.25,42.11,0,73.7-39.61,73.7-94.25,0-41.11-20.56-93.25-72.7-93.25S3360.34,2589.53,3360.34,2635.65Z" transform="translate(-267.07 -1699.4)"/></g></svg>