<svg xmlns="http://www.w3.org/2000/svg" xmlns:xlink="http://www.w3.org/1999/xlink" viewBox="0 0 205.67 235.9"><defs><style>.cls-1{isolation:isolate;}.cls-2{fill:#c6c6c6;}.cls-2,.cls-6{mix-blend-mode:multiply;}.cls-3{fill:#5a3a11;}.cls-4{fill:#290900;}.cls-5{fill:#e8b62e;}.cls-6{fill:#dadada;}.cls-7{fill:#a06a1e;}.cls-8{fill:#3e2a13;}.cls-9{fill:#fff;opacity:0.3;mix-blend-mode:soft-light;}.cls-10{fill:url(#linear-gradient);}.cls-11{fill:url(#linear-gradient-2);}.cls-12{fill:url(#linear-gradient-3);}.cls-13{fill:url(#linear-gradient-4);}.cls-14{fill:url(#linear-gradient-5);}.cls-15{fill:url(#linear-gradient-6);}.cls-16{fill:url(#linear-gradient-7);}.cls-17{fill:url(#linear-gradient-8);}.cls-18{fill:url(#linear-gradient-9);}.cls-19{fill:url(#linear-gradient-10);}.cls-20{fill:url(#linear-gradient-11);}.cls-21{fill:#e74645;}</style><linearGradient id="linear-gradient" x1="126.79" y1="176.03" x2="276.23" y2="176.03" gradientUnits="userSpaceOnUse"><stop offset="0" stop-color="#576170"/><stop offset="1" stop-color="#020408"/></linearGradient><linearGradient id="linear-gradient-2" x1="126.79" y1="163.2" x2="276.23" y2="163.2" gradientTransform="translate(33.24 -34.42) rotate(10.53)" xlink:href="#linear-gradient"/><linearGradient id="linear-gradient-3" x1="126.8" y1="181.72" x2="276.22" y2="181.72" gradientTransform="translate(14.15 -14.71) rotate(4.29)" xlink:href="#linear-gradient"/><linearGradient id="linear-gradient-4" x1="126.8" y1="202.31" x2="276.22" y2="202.31" gradientTransform="translate(396.89 -6.28) rotate(88.01)" xlink:href="#linear-gradient"/><linearGradient id="linear-gradient-5" x1="12.2" y1="113.17" x2="161.64" y2="113.17" xlink:href="#linear-gradient"/><linearGradient id="linear-gradient-6" x1="12.21" y1="111.92" x2="161.62" y2="111.92" xlink:href="#linear-gradient"/><linearGradient id="linear-gradient-7" x1="12.2" y1="109.11" x2="161.64" y2="109.11" xlink:href="#linear-gradient"/><linearGradient id="linear-gradient-8" x1="12.2" y1="107.69" x2="161.64" y2="107.69" xlink:href="#linear-gradient"/><linearGradient id="linear-gradient-9" x1="12.21" y1="105.22" x2="161.63" y2="105.22" xlink:href="#linear-gradient"/><linearGradient id="linear-gradient-10" x1="126.8" y1="161.34" x2="276.22" y2="161.34" xlink:href="#linear-gradient"/><linearGradient id="linear-gradient-11" x1="126.8" y1="245.55" x2="276.22" y2="245.55" xlink:href="#linear-gradient"/></defs><g class="cls-1"><g id="Capa_1" data-name="Capa 1"><path class="cls-2" d="M287,294.53c0,7.72-38.6,14-86.21,14s-86.21-6.25-86.21-14,38.6-14,86.21-14S287,286.81,287,294.53Z" transform="translate(-114.59 -72.61)"/><polygon class="cls-3" points="36.14 21.17 127.28 21.17 132.85 16.65 46.24 16.65 36.14 21.17"/><path class="cls-4" d="M188,93.19a2.44,2.44,0,1,1-2.44-2.43A2.43,2.43,0,0,1,188,93.19Z" transform="translate(-114.59 -72.61)"/><path class="cls-4" d="M217.66,93.19a2.43,2.43,0,1,1-2.42-2.43A2.42,2.42,0,0,1,217.66,93.19Z" transform="translate(-114.59 -72.61)"/><path class="cls-4" d="M215.91,93.31l-1.36-.24c1.12-6.27.25-11.12-2.59-14.4C207.74,73.8,200.48,74,200.41,74c-4.89.16-8.59,1.74-11,4.71-4.58,5.58-3.17,14.28-3.16,14.36l-1.37.23c-.07-.38-1.52-9.4,3.45-15.47,2.69-3.29,6.75-5,12.05-5.22.33,0,8-.23,12.64,5.14C216.15,81.36,217.12,86.6,215.91,93.31Z" transform="translate(-114.59 -72.61)"/><polygon class="cls-5" points="122.76 133.18 36.14 133.18 36.14 21.17 127.28 21.17 122.76 133.18"/><path class="cls-6" d="M173.92,138.41a125,125,0,0,1-13.3-43.47c0-.39-.08-.77-.11-1.16h-9.77v112h86.61l.92-22.81C211.2,185.71,185.35,160.76,173.92,138.41Z" transform="translate(-114.59 -72.61)"/><polygon class="cls-7" points="122.76 133.18 138.42 122.75 132.85 16.65 127.28 21.17 122.76 133.18"/><path class="cls-8" d="M183.9,100.21a2.44,2.44,0,1,1-2.44-2.43A2.44,2.44,0,0,1,183.9,100.21Z" transform="translate(-114.59 -72.61)"/><path class="cls-8" d="M213.58,100.21a2.43,2.43,0,1,1-2.43-2.43A2.43,2.43,0,0,1,213.58,100.21Z" transform="translate(-114.59 -72.61)"/><path class="cls-8" d="M211.84,100.34l-1.37-.25c1.12-6.27.25-11.12-2.59-14.4C203.66,80.82,196.41,81,196.33,81c-4.89.16-8.59,1.74-11,4.71-4.57,5.59-3.18,14.28-3.16,14.37l-1.37.23c-.07-.38-1.51-9.41,3.45-15.48,2.7-3.29,6.75-5,12.05-5.22.33,0,8-.23,12.64,5.14C212.06,88.39,213.05,93.62,211.84,100.34Z" transform="translate(-114.59 -72.61)"/><path class="cls-9" d="M183.1,105.61s-2.92,48.21,46.72,57.74l3.7-57.74Z" transform="translate(-114.59 -72.61)"/><path class="cls-10" d="M272.91,231,147.39,218.09c-19.72-4.5-18.84-20.07-18.61-22.27V158.16L279.85,121ZM148.37,213.14l119.84,12.33,6.18-97.89L133.83,162.11v34l0,.19C133.72,196.87,132.08,209.34,148.37,213.14Z" transform="translate(-114.59 -72.61)"/><rect class="cls-11" x="130.07" y="160.68" width="146.67" height="5.05" transform="translate(-140.99 -32.69) rotate(-10.53)"/><rect class="cls-12" x="131.1" y="179.19" width="145.17" height="5.05" transform="translate(-127.6 -56.88) rotate(-4.29)"/><rect class="cls-13" x="199.18" y="131.92" width="5.05" height="140.78" transform="translate(-122.07 324.26) rotate(-88.01)"/><rect class="cls-14" x="31.32" y="83.32" width="5.04" height="59.71"/><rect class="cls-15" x="55.96" y="77.2" width="5.44" height="69.44"/><rect class="cls-16" x="81.02" y="69.99" width="5.78" height="78.24"/><rect class="cls-17" x="106.1" y="64.56" width="6.06" height="86.27"/><rect class="cls-18" x="133.67" y="56.76" width="6.43" height="96.92"/><path class="cls-19" d="M272.44,228l-6.41-.42L273.9,106.3a11.84,11.84,0,0,1,2.39-8.13,9.87,9.87,0,0,1,7.26-3.44H308v6.43h-24.1a3.42,3.42,0,0,0-2.64,1.11,5.46,5.46,0,0,0-.93,3.66l0,.29,0,.27Z" transform="translate(-114.59 -72.61)"/><path class="cls-20" d="M253.32,271.2q-2.17,0-4.53-.21L142,271.2a3.53,3.53,0,0,1,0-7.06L249,263.93h.31c7.66.71,13.34-.53,16.43-3.57a9.82,9.82,0,0,0,2.82-7.23,2.82,2.82,0,0,1,0-.41c.29-10.29-10.4-11.71-10.86-11.76l-119.6-14a3.53,3.53,0,0,1,.82-7l119.62,14c6.06.74,17.37,5.62,17.09,18.81a17.13,17.13,0,0,1-4.79,12.53C266.87,269.22,261,271.2,253.32,271.2Z" transform="translate(-114.59 -72.61)"/><path class="cls-21" d="M151.4,290.56a9.33,9.33,0,1,1,9.33-9.33A9.34,9.34,0,0,1,151.4,290.56Zm0-14.12a4.79,4.79,0,1,0,4.79,4.79A4.8,4.8,0,0,0,151.4,276.44Z" transform="translate(-114.59 -72.61)"/><path class="cls-21" d="M251.48,290.56a9.33,9.33,0,1,1,9.33-9.33A9.34,9.34,0,0,1,251.48,290.56Zm0-14.12a4.79,4.79,0,1,0,4.79,4.79A4.8,4.8,0,0,0,251.48,276.44Z" transform="translate(-114.59 -72.61)"/><rect class="cls-21" x="169.44" y="18.5" width="36.23" height="13.65" rx="3.75"/></g></g></svg>